<?xml version="1.0" standalone="no"?>
<!DOCTYPE svg PUBLIC "-//W3C//DTD SVG 20010904//EN"
 "http://www.w3.org/TR/2001/REC-SVG-20010904/DTD/svg10.dtd">
<svg version="1.0" xmlns="http://www.w3.org/2000/svg"
 width="476.000000pt" height="524.000000pt" viewBox="0 0 476.000000 524.000000"
 preserveAspectRatio="xMidYMid meet">

<g transform="translate(0.000000,524.000000) scale(0.100000,-0.100000)"
fill="#000000" stroke="none">
<path d="M3225 4848 c-2 -7 -5 -22 -7 -33 -3 -14 -11 -19 -28 -18 -14 1 -32
-1 -40 -4 -8 -3 -35 -8 -60 -10 -25 -1 -67 -10 -93 -18 -27 -9 -57 -13 -67
-10 -12 4 -22 0 -28 -11 -7 -12 -24 -18 -58 -19 -68 -3 -127 -25 -139 -53 -9
-21 -15 -23 -58 -19 -54 5 -59 0 -63 -57 -3 -28 -11 -47 -28 -61 -41 -35 -49
-60 -36 -116 13 -54 9 -78 -40 -254 -30 -109 -46 -190 -55 -275 -6 -64 6 -45
25 40 16 66 47 118 112 185 40 41 50 47 58 35 6 -10 10 -11 10 -2 0 6 7 12 17
12 9 0 40 7 69 16 31 10 59 14 70 9 11 -4 28 -7 40 -6 11 1 26 -5 33 -13 7 -8
19 -12 27 -9 8 3 14 1 14 -5 0 -6 -6 -12 -12 -15 -7 -2 3 -9 22 -14 23 -6 36
-16 38 -29 6 -39 12 -47 25 -36 26 21 56 8 79 -35 26 -47 115 -153 130 -153 5
0 6 5 2 11 -4 8 4 9 27 4 63 -14 114 -70 90 -98 -9 -12 -8 -16 2 -20 11 -4 14
-30 13 -114 l-1 -110 -40 -47 c-26 -31 -55 -52 -82 -61 -24 -8 -61 -33 -84
-55 -23 -22 -47 -40 -55 -40 -7 0 -23 -11 -36 -24 -20 -21 -54 -31 -94 -27 -6
1 -29 17 -53 37 -58 50 -63 36 -8 -23 38 -40 43 -50 31 -61 -8 -7 -14 -9 -14
-5 0 4 -5 2 -12 -5 -15 -15 -264 -17 -273 -2 -3 6 0 10 8 10 8 0 24 9 37 20
13 11 32 20 44 21 78 3 115 25 120 72 2 15 0 27 -5 27 -4 0 -14 2 -21 5 -9 4
-20 -5 -28 -20 -11 -21 -20 -25 -60 -25 -25 0 -51 5 -56 10 -8 8 -20 7 -40 -1
-16 -7 -53 -13 -83 -14 -44 -1 -57 -5 -69 -23 -16 -24 -51 -29 -71 -9 -11 10
-12 7 -6 -13 10 -37 78 -137 83 -122 12 37 73 -26 86 -87 3 -19 14 -44 24 -55
16 -20 16 -20 0 -7 -15 11 -18 11 -18 -1 0 -8 6 -22 13 -32 13 -18 16 -18 93
-1 43 10 74 20 67 22 -8 3 -4 13 12 29 14 14 25 26 25 27 0 1 -22 0 -50 -1
-32 -3 -50 0 -50 7 0 6 9 11 20 11 14 0 20 6 19 23 -1 16 -2 18 -6 5 -2 -10
-12 -18 -21 -19 -26 -1 -97 2 -100 6 -7 7 -20 64 -14 63 4 -1 14 1 22 5 8 3
57 8 107 10 106 5 125 -4 104 -49 -6 -14 -11 -32 -11 -42 0 -13 3 -12 16 6 8
12 22 22 30 22 17 0 134 80 134 92 0 4 9 0 20 -9 23 -20 26 -57 6 -94 -7 -14
-11 -39 -9 -55 3 -22 -2 -35 -21 -53 -13 -13 -22 -29 -20 -35 3 -7 -8 -19 -23
-27 -33 -17 -49 -28 -71 -51 -9 -10 -20 -18 -25 -18 -4 0 -21 -10 -38 -22 -24
-18 -42 -22 -94 -21 -67 1 -69 -2 -36 -41 11 -13 16 -38 16 -85 0 -43 6 -78
18 -100 9 -19 17 -36 17 -38 0 -1 -28 -3 -62 -3 -83 -1 -218 -40 -264 -76 -78
-62 -76 -55 13 41 51 54 91 100 90 101 -1 1 -51 -3 -112 -8 -136 -12 -190 -30
-235 -79 -60 -64 -164 -278 -204 -419 -42 -148 -69 -277 -70 -342 -1 -36 -4
-44 -13 -36 -7 6 -13 25 -13 42 0 17 -5 38 -10 46 -19 29 -10 -54 11 -100 l20
-44 -71 -105 c-38 -57 -68 -106 -66 -108 2 -2 24 1 49 8 63 15 69 11 47 -36
-20 -42 -26 -95 -12 -110 5 -6 6 -21 1 -35 -7 -25 -7 -25 -8 4 -2 64 -14 11
-16 -72 l-3 -88 52 -28 c73 -41 94 -63 126 -131 15 -33 41 -72 56 -88 16 -15
53 -50 82 -78 28 -28 55 -62 58 -75 3 -13 9 -24 13 -24 14 0 31 50 31 89 0 50
-19 74 -59 74 -20 0 -27 3 -19 9 7 4 22 8 33 8 20 0 170 -95 300 -190 114 -83
168 -106 271 -113 96 -7 158 -24 204 -57 33 -24 57 -25 130 -5 80 22 146 19
188 -7 34 -21 35 -21 46 -2 6 10 14 33 18 49 16 72 68 199 116 284 29 50 52
101 52 113 0 53 121 349 171 419 12 17 22 39 23 48 1 9 18 37 39 63 20 25 44
68 52 95 18 59 46 98 87 119 16 8 27 18 25 21 -3 3 -20 -5 -36 -17 -17 -12
-31 -17 -31 -12 0 22 73 228 86 243 8 8 14 25 14 36 0 11 8 31 18 44 11 13 22
35 25 49 10 41 105 211 134 242 15 15 35 28 45 28 32 0 19 14 -40 42 -83 41
-230 124 -269 154 -19 14 -35 24 -37 23 -2 -4 -20 -139 -32 -242 -3 -31 -10
-59 -13 -62 -4 -2 -41 21 -82 51 -92 69 -242 163 -291 182 -37 15 -37 15 -82
-25 -26 -22 -77 -57 -116 -77 -38 -20 -79 -50 -91 -67 -16 -24 -24 -28 -30
-17 -18 27 -10 64 16 76 14 6 25 18 25 26 0 7 15 19 33 27 41 16 75 44 247
202 134 123 184 177 208 223 11 20 -2 75 -29 126 -8 16 -5 24 15 43 14 13 26
32 26 42 0 10 14 72 30 138 17 66 30 126 30 135 0 8 14 35 30 59 31 45 34 44
44 -20 9 -51 28 -65 60 -44 14 10 26 13 26 9 1 -22 20 24 20 47 0 37 22 77 48
89 31 14 42 13 42 -5 0 -9 9 -15 23 -15 26 0 69 50 73 85 2 26 43 92 72 118
17 16 19 23 10 53 -8 31 -6 37 14 54 13 11 28 20 33 20 17 1 62 44 69 65 3 12
-3 37 -15 60 -17 31 -20 49 -15 87 6 45 5 48 -17 48 -12 0 -28 5 -35 12 -17
17 -15 58 3 65 12 4 7 14 -23 42 -32 31 -40 47 -46 88 -3 28 -18 67 -32 88
-14 20 -22 45 -19 54 3 10 -7 33 -25 57 -16 21 -30 52 -30 67 0 23 -7 31 -42
47 -24 11 -59 20 -78 20 -31 0 -39 7 -70 50 -61 88 -81 109 -113 124 -34 15
-116 40 -132 41 -6 0 -27 8 -48 18 -20 10 -42 15 -48 12 -5 -4 -17 -1 -25 5
-10 9 -32 11 -69 6 -32 -3 -56 -2 -60 4 -9 14 -25 13 -30 -2z m-135 -809 c0
-5 -4 -9 -10 -9 -5 0 -10 7 -10 16 0 8 5 12 10 9 6 -3 10 -10 10 -16z m565
-479 c7 -54 -11 -100 -40 -100 -15 0 -20 -12 -9 -23 12 -12 46 14 59 46 9 20
14 25 15 14 1 -57 -64 -142 -122 -158 -82 -22 -160 50 -80 75 31 10 28 27 -5
24 -22 -2 -28 1 -29 19 -1 13 8 26 22 34 15 7 24 21 24 36 0 13 5 23 10 23 16
0 24 -30 11 -43 -17 -17 -13 -54 6 -62 24 -9 77 49 70 77 -4 14 -1 18 11 16
12 -3 17 -13 15 -33 l-1 -30 15 35 c9 22 13 48 9 73 -4 23 -3 36 3 33 5 -3 12
-29 16 -56z m-1112 -327 c-7 -2 -19 -2 -25 0 -7 3 -2 5 12 5 14 0 19 -2 13 -5z
m287 -98 c-7 -9 -15 -13 -18 -10 -3 2 1 11 8 20 7 9 15 13 18 10 3 -2 -1 -11
-8 -20z m-60 -774 c0 -4 -16 -39 -35 -76 -34 -66 -34 -68 -28 -164 l5 -96 -56
-170 c-30 -93 -69 -222 -86 -285 -39 -153 -120 -313 -149 -296 -5 3 -12 29
-16 56 -4 28 -11 50 -16 50 -14 0 -11 -46 7 -91 15 -36 15 -42 1 -56 -13 -14
-20 -6 -62 72 -96 175 -121 297 -90 425 25 102 123 230 175 230 26 0 68 54 81
103 28 105 73 171 148 214 25 15 51 34 58 43 10 12 7 16 -15 21 -25 5 -23 6
18 16 60 14 60 14 60 4z m538 -30 c-1 -5 -31 -45 -65 -88 -71 -89 -281 -311
-260 -273 21 35 29 78 17 85 -17 11 -11 44 12 67 13 13 24 34 26 48 5 45 24
68 75 90 37 16 63 21 95 17 25 -3 39 -1 33 3 -15 9 12 40 35 40 8 0 14 5 14
10 0 6 5 10 11 10 6 0 9 -4 7 -9z"/>
<path d="M2990 4040 c0 -5 5 -10 11 -10 5 0 7 5 4 10 -3 6 -8 10 -11 10 -2 0
-4 -4 -4 -10z"/>
<path d="M2840 3784 c-36 -13 -74 -24 -85 -24 -11 0 -32 -11 -47 -24 -14 -14
-28 -22 -31 -19 -3 3 -9 -11 -12 -31 -5 -26 -3 -40 9 -52 12 -11 15 -25 11
-45 -4 -16 -4 -38 0 -49 7 -21 7 -21 41 5 23 17 34 21 34 12 0 -24 72 -56 115
-51 64 7 101 23 114 48 12 22 35 34 129 71 23 10 42 21 42 25 0 7 -58 47 -85
59 -5 2 -16 10 -23 18 -8 7 -18 10 -24 7 -12 -8 -35 -11 -90 -13 -43 -1 -47
-12 -18 -41 11 -11 17 -20 13 -20 -5 0 -17 -7 -27 -15 -16 -12 -17 -17 -6 -30
12 -14 11 -18 -1 -26 -8 -5 -24 -9 -36 -9 -23 0 -25 18 -4 44 12 14 10 16 -8
16 -18 0 -22 5 -19 28 2 18 9 27 20 26 10 -1 18 8 21 22 2 13 0 21 -4 18 -5
-3 -9 -1 -9 5 0 10 18 24 35 27 6 1 23 5 39 9 21 6 27 5 22 -4 -5 -7 3 -11 23
-11 17 0 31 -4 31 -9 0 -9 56 -8 65 1 14 13 -34 33 -84 35 -30 1 -57 7 -59 12
-5 15 -18 13 -92 -15z"/>
<path d="M2396 3738 c-20 -29 -20 -67 0 -118 11 -26 14 -54 11 -77 -11 -65 30
-85 127 -64 38 8 50 44 41 117 -4 37 -14 61 -28 75 -24 23 -121 89 -130 89 -3
0 -13 -10 -21 -22z"/>
<path d="M2736 3105 c-3 -9 0 -15 9 -15 16 0 20 16 6 24 -5 3 -11 -1 -15 -9z"/>
<path d="M2951 3024 c0 -11 3 -14 6 -6 3 7 2 16 -1 19 -3 4 -6 -2 -5 -13z"/>
<path d="M4109 1941 c-26 -27 -63 -77 -83 -112 -20 -35 -44 -75 -53 -88 -17
-23 -17 -24 2 -14 25 13 75 69 75 83 0 5 4 10 9 10 5 0 12 9 16 19 3 10 24 47
46 81 22 34 38 64 37 66 -2 2 -24 -19 -49 -45z"/>
<path d="M527 1622 c-27 -30 -20 -51 38 -122 30 -38 64 -87 76 -109 24 -46 24
-46 71 -27 30 13 41 13 80 1 58 -17 101 -39 118 -60 8 -10 39 -28 69 -41 31
-14 63 -31 71 -39 9 -8 39 -18 66 -21 30 -4 72 -20 106 -41 44 -26 78 -37 146
-47 48 -7 97 -18 107 -24 11 -6 47 -16 80 -22 33 -6 71 -14 85 -17 20 -4 22
-2 10 6 -8 6 -23 11 -33 11 -23 0 -87 29 -105 47 -7 7 -27 13 -43 13 -28 0
-29 2 -18 22 9 16 9 23 0 26 -6 2 -11 11 -12 20 0 12 -3 9 -10 -7 -8 -20 -14
-22 -43 -17 -22 4 -36 2 -38 -5 -2 -7 -18 -3 -46 11 -23 12 -51 20 -62 17 -27
-7 -50 27 -50 75 0 21 -4 38 -9 38 -5 0 -52 56 -105 125 -53 68 -111 134 -128
146 -24 17 -62 26 -172 40 -183 24 -228 24 -249 1z"/>
<path d="M3780 1608 c-31 -47 -33 -51 -21 -47 15 5 56 69 44 69 -4 0 -15 -10
-23 -22z"/>
<path d="M3724 1348 c-62 -67 -80 -90 -63 -83 12 6 114 125 106 125 -1 0 -21
-19 -43 -42z"/>
<path d="M560 1316 c0 -4 14 -24 30 -43 17 -18 30 -41 30 -50 0 -8 -16 -33
-35 -54 -66 -73 -58 -129 22 -152 36 -10 50 -20 55 -38 4 -13 17 -57 28 -96
12 -43 32 -87 49 -105 15 -18 38 -52 51 -76 14 -25 43 -55 71 -73 33 -21 51
-41 59 -65 17 -52 75 -89 170 -108 14 -3 -2 -3 -35 -1 -33 2 -54 1 -47 -1 6
-3 12 -14 12 -24 0 -19 19 -30 50 -30 26 0 30 -23 6 -35 -11 -6 -27 -23 -36
-38 -14 -26 -14 -29 3 -38 9 -6 26 -27 37 -48 14 -28 31 -43 60 -55 73 -29
202 -15 262 30 44 31 64 41 117 54 63 16 127 80 150 150 21 65 41 73 101 39
37 -21 40 -26 40 -68 0 -48 30 -94 56 -84 11 4 10 10 -5 32 -39 55 -42 76 -6
34 20 -24 41 -43 45 -43 20 0 160 175 160 199 0 4 -40 6 -89 3 -86 -3 -89 -2
-110 24 -23 29 -27 44 -11 44 14 0 57 49 66 73 4 12 -3 24 -20 38 -14 11 -26
26 -26 33 0 7 -8 28 -17 47 -11 22 -17 53 -15 86 1 32 -3 55 -11 60 -14 9 -68
5 -118 -8 -25 -6 -52 -5 -93 6 -77 20 -85 19 -152 -15 -44 -24 -66 -30 -96
-26 -36 4 -39 3 -25 -12 13 -16 37 -75 37 -94 0 -17 -66 -48 -102 -48 -27 0
-40 5 -48 20 -13 25 -33 27 -26 3 5 -17 -25 -43 -76 -65 -10 -4 -18 -12 -18
-18 0 -14 -42 -9 -47 6 -5 15 76 114 93 114 9 0 12 5 9 10 -4 6 8 33 25 60 28
44 36 50 66 50 19 0 34 2 34 5 0 2 -12 25 -27 50 -22 36 -42 53 -90 77 -41 20
-63 37 -63 48 0 26 -50 77 -92 95 -48 20 -55 19 -34 -4 18 -19 12 -51 -9 -51
-6 0 -26 -7 -44 -16 -43 -21 -64 -13 -51 21 6 17 6 25 -1 25 -6 0 -13 -9 -16
-20 -5 -20 -33 -29 -33 -11 0 13 56 52 64 44 3 -3 6 6 6 20 0 15 -4 27 -9 27
-5 0 -12 14 -16 30 -5 24 -12 30 -33 30 -15 0 -34 4 -42 9 -22 15 -30 3 -18
-24 10 -22 8 -29 -13 -51 -49 -53 -88 -51 -89 4 0 14 -4 21 -11 17 -6 -4 -5 2
3 14 10 16 10 23 0 33 -9 9 -12 8 -12 -5 0 -9 -5 -17 -10 -17 -16 0 -74 31
-82 44 -4 6 -8 7 -8 2z m240 -230 c0 -13 3 -31 6 -39 5 -15 -29 -34 -50 -29
-4 2 -14 -5 -21 -15 -11 -15 -15 -15 -29 -4 -9 7 -16 18 -16 23 0 6 7 4 17 -3
15 -13 15 -12 5 7 -10 18 -6 24 30 52 50 38 58 39 58 8z m338 -36 c12 -12 22
-32 22 -45 0 -20 -5 -25 -25 -25 -15 0 -36 -11 -50 -26 -20 -21 -27 -24 -44
-14 -23 12 -26 8 -11 -21 9 -16 7 -19 -9 -19 -11 0 -23 5 -26 10 -15 24 -26 8
-20 -29 6 -39 6 -40 -37 -62 -23 -12 -48 -28 -53 -36 -15 -20 -79 -13 -83 8
-3 19 25 49 108 114 35 28 88 76 119 107 31 32 63 57 72 58 8 0 25 -9 37 -20z
m-78 -398 c0 -20 -7 -32 -23 -39 -25 -12 -57 -1 -57 19 0 20 33 48 57 48 19 0
23 -5 23 -28z m50 -352 c0 -5 -4 -10 -10 -10 -5 0 -10 5 -10 10 0 6 5 10 10
10 6 0 10 -4 10 -10z"/>
<path d="M760 1029 c0 -5 5 -7 10 -4 6 3 10 8 10 11 0 2 -4 4 -10 4 -5 0 -10
-5 -10 -11z"/>
<path d="M1511 1254 c0 -11 3 -14 6 -6 3 7 2 16 -1 19 -3 4 -6 -2 -5 -13z"/>
<path d="M3487 800 c-51 -19 -77 -37 -77 -51 0 -4 25 5 56 22 31 16 62 29 70
29 8 0 14 5 14 10 0 13 -7 12 -63 -10z"/>
<path d="M3405 570 c-3 -5 1 -10 9 -10 9 0 16 5 16 10 0 6 -4 10 -9 10 -6 0
-13 -4 -16 -10z"/>
<path d="M3395 520 c11 -5 36 -9 55 -10 19 0 52 -7 74 -15 21 -7 34 -9 29 -4
-14 14 -112 39 -148 38 -26 0 -27 -2 -10 -9z"/>
<path d="M3390 445 c13 -14 26 -23 28 -20 7 7 -29 45 -41 45 -6 0 0 -11 13
-25z"/>
<path d="M956 375 c-3 -8 -1 -15 4 -15 6 0 10 7 10 15 0 8 -2 15 -4 15 -2 0
-6 -7 -10 -15z"/>
<path d="M3690 340 c66 -116 78 -176 45 -224 -8 -11 -15 -33 -15 -49 0 -16 -5
-37 -10 -48 -10 -17 -7 -19 22 -19 29 0 35 5 49 38 9 20 22 60 29 89 l13 51
-41 64 c-23 35 -60 83 -82 108 l-41 45 31 -55z"/>
<path d="M2560 298 c-11 -18 -20 -38 -20 -44 0 -7 -15 -34 -33 -60 -54 -81
-94 -149 -101 -172 -7 -21 -5 -22 69 -22 71 0 75 1 66 19 -6 10 -7 21 -4 25
10 10 62 7 130 -7 34 -8 60 -10 57 -6 -2 4 -36 15 -75 24 -40 9 -85 23 -102
32 l-31 16 27 23 c15 13 27 32 27 44 0 16 7 20 33 21 18 1 24 3 14 6 -11 3
-27 12 -37 20 -17 15 -16 45 5 96 12 29 -4 19 -25 -15z"/>
<path d="M965 310 c3 -5 17 -10 31 -10 13 0 24 5 24 10 0 6 -14 10 -31 10 -17
0 -28 -4 -24 -10z"/>
<path d="M1805 258 c-4 -24 -18 -79 -31 -122 -13 -44 -24 -92 -24 -108 l0 -28
210 0 c182 0 210 2 210 15 0 9 7 32 15 51 l15 35 44 -30 c52 -36 66 -38 97
-11 l24 20 -28 -10 c-34 -12 -111 15 -103 36 3 8 2 13 -2 12 -4 0 -24 6 -44
15 -21 10 -44 17 -52 17 -10 0 -13 6 -10 15 4 9 0 15 -9 15 -9 0 -22 6 -29 13
-22 19 -95 57 -112 57 -9 0 -16 5 -16 10 0 6 -9 10 -20 10 -11 0 -20 5 -20 11
0 8 -13 9 -41 5 -25 -4 -46 -2 -54 4 -10 9 -15 1 -20 -32z"/>
<path d="M3980 157 c-22 -32 -31 -57 -21 -57 9 0 45 69 39 75 -2 2 -10 -6 -18
-18z"/>
<path d="M3588 3 c7 -3 16 -2 19 1 4 3 -2 6 -13 5 -11 0 -14 -3 -6 -6z"/>
</g>
</svg>
